<svg width="408" height="383" viewBox="0 0 408 383" fill="none" xmlns="http://www.w3.org/2000/svg">
<path d="M5.54077 196.547V85.7315H27.5499V196.547H5.54077ZM82.8759 196.547V108.048H38.5497V85.7315H149.365V108.048H105.193V196.547H82.8759ZM30.7821 323.547C26.6778 323.547 22.9326 322.572 19.5466 320.623C16.2632 318.57 13.5954 315.903 11.5433 312.619C9.59374 309.233 8.61898 305.488 8.61898 301.384V234.895C8.61898 230.79 9.59374 227.096 11.5433 223.813C13.5954 220.427 16.2632 217.759 19.5466 215.81C22.9326 213.758 26.6778 212.731 30.7821 212.731H97.1174C101.222 212.731 104.916 213.758 108.199 215.81C111.585 217.759 114.304 220.427 116.356 223.813C118.408 227.096 119.434 230.79 119.434 234.895V244.437H96.9635V235.972C96.9635 235.664 96.8609 235.459 96.6557 235.356C96.5531 235.151 96.3478 235.048 96.04 235.048H31.7055C31.3977 235.048 31.1412 235.151 30.936 235.356C30.8334 235.459 30.7821 235.664 30.7821 235.972V300.306C30.7821 300.614 30.8334 300.871 30.936 301.076C31.1412 301.179 31.3977 301.23 31.7055 301.23H96.04C96.3478 301.23 96.5531 301.179 96.6557 301.076C96.8609 300.871 96.9635 300.614 96.9635 300.306V282.145H72.4917V259.828H119.434V301.384C119.434 305.488 118.408 309.233 116.356 312.619C114.304 315.903 111.585 318.57 108.199 320.623C104.916 322.572 101.222 323.547 97.1174 323.547H30.7821ZM133.298 323.547V212.731H155.307V323.547H133.298ZM256.406 323.547L223.623 284.454H252.712L279.8 316.621V323.547H256.406ZM169.293 323.547V212.885H257.791C261.896 212.885 265.589 213.911 268.873 215.964C272.259 217.913 274.978 220.581 277.03 223.967C279.082 227.353 280.108 231.047 280.108 235.048V264.291C280.108 268.293 279.082 271.987 277.03 275.373C274.978 278.656 272.259 281.324 268.873 283.376C265.589 285.326 261.896 286.301 257.791 286.301L191.456 286.454V323.547H169.293ZM192.379 263.984H256.714C257.022 263.984 257.227 263.932 257.33 263.83C257.535 263.624 257.637 263.419 257.637 263.214V235.972C257.637 235.664 257.535 235.459 257.33 235.356C257.227 235.151 257.022 235.048 256.714 235.048H192.379C192.072 235.048 191.815 235.151 191.61 235.356C191.507 235.459 191.456 235.664 191.456 235.972V263.214C191.456 263.419 191.507 263.624 191.61 263.83C191.815 263.932 192.072 263.984 192.379 263.984ZM296.453 323.547V212.578H318.616V301.23H407.268V323.547H296.453Z" fill="white"/>
<path d="M231.262 0C237.341 3.93024e-06 238.524 0.122889 242.726 1.18359C245.296 1.79552 248.6 2.89706 250.069 3.5498C251.538 4.2025 253.822 5.50775 255.169 6.40527C256.515 7.30281 258.8 9.30182 260.269 10.7705C261.738 12.2799 263.533 14.4419 264.267 15.625C265.042 16.808 266.184 18.848 266.878 20.1943C267.571 21.5405 268.591 23.8252 269.122 25.2939C269.693 26.7626 270.549 29.7008 271.08 31.8223C271.61 33.9438 272.344 37.8196 272.671 40.3896C272.997 42.9599 273.365 47.7325 273.528 50.9961C273.65 54.2598 273.569 60.4202 273.365 64.6631C273.12 68.906 272.548 75.9237 271.202 87.918L271.85 88.998C273.03 91.0066 274.367 93.4813 275.697 95.9814C275.965 96.4861 276.236 96.9966 276.505 97.5049C278.3 100.972 280.463 105.378 281.279 107.296C282.136 109.213 283.441 112.518 284.216 114.64C284.992 116.761 286.257 120.963 287.032 123.9C287.929 127.368 288.419 130.306 288.419 134.63H305.962L306.533 137.159C306.859 138.587 310.734 154.988 315.14 173.592C319.546 192.195 323.218 207.78 323.34 208.188C323.503 208.84 318.721 208.881 227.223 208.881C135.961 208.881 130.968 208.84 131.104 208.192C131.104 208.191 131.106 208.189 131.106 208.188C131.228 207.78 134.9 192.195 139.306 173.592C143.712 154.988 147.588 138.587 147.915 137.2L148.486 134.63H179.9C179.595 133.173 179.347 131.772 179.178 130.498C179.153 130.305 179.128 130.112 179.106 129.921C179.099 129.858 179.09 129.796 179.084 129.734C178.92 128.266 178.92 125.981 179.084 124.635C179.288 123.288 179.696 121.29 180.063 120.147C180.389 119.046 181.49 116.109 182.51 113.62C183.489 111.132 185.162 107.378 186.141 105.257C186.219 105.096 186.302 104.928 186.386 104.753C187.134 103.214 188.207 101.071 189.825 98.0527C189.891 97.9344 189.954 97.8191 190.017 97.709L192.016 94.0371C189.405 51.5683 188.915 40.7568 189.038 38.1455C189.16 35.9018 189.691 32.3119 190.221 30.1904C190.792 28.0692 191.812 24.9277 192.505 23.2549C193.24 21.5823 194.505 19.0934 195.321 17.7471C196.137 16.4008 198.013 14.0347 199.482 12.4844C200.951 10.9343 203.154 8.89452 204.378 7.95605C205.601 7.01777 207.804 5.62988 209.273 4.89551C210.742 4.16119 213.231 3.10069 214.781 2.57031C216.331 2.03995 219.106 1.34666 220.901 0.979492C222.696 0.653131 224.246 0.285691 224.328 0.204102L224.327 0.203125C224.422 0.0811814 227.558 0 231.262 0ZM153.831 141.565L152.525 147.155C151.791 150.256 148.608 163.8 145.426 177.263L139.633 201.741C207.683 201.904 247.092 201.905 271.122 201.823L314.815 201.741C311.184 186.565 308.573 175.468 306.615 167.268C304.697 159.068 302.535 149.93 301.882 146.951L300.659 141.565H287.4C284.748 146.624 283.034 149.031 281.28 150.867C279.689 152.54 276.915 154.907 275.039 156.09C272.509 157.763 271.529 158.17 271.081 157.885C270.632 157.558 270.428 157.64 270.265 158.17C270.184 158.578 269.816 160.536 269.449 162.576C269.082 164.575 268.715 166.738 268.633 167.35L268.429 168.492H195.403C193.853 159.802 193.281 156.538 193.159 155.641C192.955 154.335 192.261 153.274 189.854 150.541C188.181 148.624 185.937 145.808 184.877 144.299L182.96 141.525L153.831 141.565ZM231.712 123.207C209.722 123.207 191.731 123.289 191.731 123.411C191.732 123.536 193.363 132.47 195.403 143.279C197.401 154.129 199.155 163.225 199.278 163.474C199.441 163.882 206.336 164.004 231.916 164.004C257.455 164.004 264.39 163.882 264.553 163.474C264.676 163.228 266.389 154.171 268.388 143.401C270.387 132.631 271.978 123.696 271.856 123.492C271.749 123.329 253.686 123.207 231.712 123.207ZM258.393 108.521C258.148 108.521 257.74 109.948 257.455 111.661C257.21 113.415 257.005 115.13 257.005 115.456C257.006 115.986 257.578 116.026 261.494 115.659C263.941 115.414 265.981 115.048 265.981 114.844C265.981 114.599 264.39 113.09 262.432 111.458C260.434 109.826 258.638 108.521 258.393 108.521ZM205.316 112.192C205.112 112.193 204.255 112.885 203.439 113.701C202.582 114.558 202.052 115.374 202.215 115.578C202.379 115.741 203.399 115.863 204.46 115.863C206.132 115.863 206.377 115.741 206.213 115.129C206.132 114.762 205.969 113.945 205.887 113.293C205.806 112.681 205.561 112.192 205.316 112.192ZM240.769 23.2549C240.239 24.4379 239.218 25.5801 237.954 26.4775C236.893 27.2527 234.894 28.3949 233.547 29.0068C232.201 29.6188 229.346 30.557 227.224 31.1689C225.103 31.7401 221.961 32.4746 220.289 32.8418C218.616 33.209 214.863 33.8208 211.925 34.2695C208.988 34.6775 204.867 35.1269 202.746 35.29C200.625 35.4124 198.585 35.6974 198.258 35.9014C197.769 36.1869 197.646 37.0846 197.687 40.0625C197.728 42.1431 197.973 44.9584 198.258 46.3047C198.503 47.651 199.278 50.1398 199.931 51.8125C200.543 53.4852 202.012 56.3407 203.195 58.1357C204.378 59.9308 206.336 62.4603 207.601 63.8066C208.866 65.1122 211.558 67.2746 213.557 68.5801C215.556 69.9264 218.372 71.3945 219.799 71.9248L222.329 72.8232V86.4902C219.351 86.8574 219.105 87.0206 219.309 87.5918C219.433 88.0025 222.37 93.7532 225.878 100.36C229.345 106.969 232.324 112.519 232.446 112.723C232.61 112.884 235.792 107.499 239.545 100.769C243.336 94.0411 246.395 88.3326 246.399 88.1221C246.399 87.8773 245.46 87.3057 244.359 86.7754L242.278 85.8779L242.319 73.0264C244.359 72.7 246.44 71.8438 248.235 70.9463C250.03 70.008 252.6 68.4986 253.946 67.5195C255.292 66.5812 257.333 64.7857 258.434 63.6025C259.576 62.3786 261.085 60.5833 261.779 59.5635C262.472 58.5435 263.778 56.2589 264.675 54.4639C265.573 52.6688 266.675 49.6498 267.165 47.7324C267.654 45.8157 268.021 43.9806 268.021 43.6533C268.021 43.2862 266.512 42.3063 264.431 41.3271C262.473 40.3888 259.331 38.4308 257.414 37.0029C255.496 35.5342 252.192 32.7597 250.071 30.7607C247.949 28.7617 245.461 26.3139 244.563 25.2939C243.666 24.274 242.645 22.9688 242.278 22.4385L241.626 21.4189L240.769 23.2549Z" fill="white"/>
<path d="M116.976 376.471C113.4 376.471 110.561 375.239 108.458 372.774C106.356 370.309 105.305 367.071 105.305 363.06C105.305 359.073 106.368 355.823 108.495 353.309C110.621 350.796 113.485 349.54 117.085 349.54C119.792 349.54 122.015 350.24 123.755 351.642C125.519 353.044 126.618 354.965 127.053 357.405H124.661C124.298 355.665 123.453 354.276 122.123 353.237C120.794 352.174 119.103 351.642 117.049 351.642C114.125 351.642 111.854 352.717 110.234 354.868C108.64 356.994 107.842 359.725 107.842 363.06C107.842 366.395 108.64 369.113 110.234 371.215C111.854 373.294 114.113 374.333 117.013 374.333C119.405 374.333 121.302 373.608 122.703 372.158C124.105 370.708 124.915 368.847 125.132 366.576H127.488C127.343 369.306 126.449 371.566 124.806 373.354C122.945 375.432 120.335 376.471 116.976 376.471ZM142.848 374.586C144.854 374.586 146.412 373.837 147.524 372.339C148.635 370.841 149.191 368.944 149.191 366.648C149.191 364.353 148.635 362.456 147.524 360.957C146.412 359.459 144.854 358.71 142.848 358.71C140.818 358.71 139.247 359.459 138.136 360.957C137.024 362.456 136.469 364.353 136.469 366.648C136.469 368.944 137.024 370.841 138.136 372.339C139.247 373.837 140.818 374.586 142.848 374.586ZM142.848 376.471C140.19 376.471 138.075 375.553 136.505 373.716C134.934 371.856 134.149 369.5 134.149 366.648C134.149 363.797 134.934 361.453 136.505 359.616C138.075 357.756 140.19 356.825 142.848 356.825C145.482 356.825 147.572 357.756 149.119 359.616C150.689 361.453 151.475 363.797 151.475 366.648C151.475 369.5 150.689 371.856 149.119 373.716C147.572 375.553 145.482 376.471 142.848 376.471ZM166.129 376.507C163.64 376.507 161.671 375.601 160.221 373.789C158.771 371.977 158.046 369.608 158.046 366.685C158.046 363.664 158.807 361.272 160.33 359.508C161.852 357.744 163.761 356.862 166.057 356.862C168.884 356.862 170.938 358.034 172.219 360.378H172.291V350.083H174.539V376H172.291V373.209H172.219C170.793 375.408 168.763 376.507 166.129 376.507ZM166.202 374.623C168.207 374.623 169.754 373.91 170.841 372.484C171.929 371.034 172.473 369.113 172.473 366.721C172.473 364.353 171.917 362.432 170.805 360.957C169.718 359.483 168.183 358.746 166.202 358.746C164.389 358.746 162.964 359.483 161.925 360.957C160.886 362.407 160.366 364.328 160.366 366.721C160.366 369.041 160.861 370.938 161.852 372.412C162.867 373.886 164.317 374.623 166.202 374.623ZM190.785 376.471C188.055 376.471 185.916 375.565 184.37 373.753C182.823 371.916 182.05 369.548 182.05 366.648C182.05 363.797 182.835 361.453 184.406 359.616C185.977 357.756 188.043 356.825 190.604 356.825C192.054 356.825 193.311 357.103 194.374 357.659C195.461 358.215 196.307 358.988 196.911 359.979C197.515 360.97 197.95 362.057 198.216 363.241C198.506 364.401 198.651 365.67 198.651 367.047H184.37C184.418 369.27 184.986 371.082 186.073 372.484C187.161 373.861 188.731 374.55 190.785 374.55C193.637 374.55 195.461 373.149 196.259 370.345H198.434C198.023 372.23 197.153 373.729 195.824 374.84C194.519 375.928 192.839 376.471 190.785 376.471ZM184.406 365.271H196.295C196.247 363.314 195.739 361.731 194.773 360.523C193.83 359.29 192.441 358.674 190.604 358.674C188.792 358.674 187.354 359.278 186.291 360.486C185.252 361.695 184.623 363.289 184.406 365.271ZM224.829 376.507C222.146 376.507 220.08 375.396 218.631 373.173H218.558V376H216.311V350.083H218.558V360.486H218.631C220.08 358.07 222.195 356.862 224.974 356.862C227.269 356.862 229.13 357.744 230.556 359.508C231.982 361.247 232.694 363.64 232.694 366.685C232.694 369.608 231.982 371.977 230.556 373.789C229.154 375.601 227.245 376.507 224.829 376.507ZM224.72 374.623C226.557 374.623 227.958 373.886 228.925 372.412C229.915 370.938 230.411 369.041 230.411 366.721C230.411 364.328 229.903 362.407 228.888 360.957C227.898 359.483 226.496 358.746 224.684 358.746C222.678 358.746 221.119 359.496 220.008 360.994C218.921 362.492 218.377 364.401 218.377 366.721C218.377 369.113 218.921 371.034 220.008 372.484C221.119 373.91 222.69 374.623 224.72 374.623ZM241.67 382.198C241.018 382.198 240.377 382.102 239.749 381.908V379.915H239.858C240.365 380.084 240.933 380.168 241.561 380.168C243.035 380.168 244.074 379.323 244.679 377.631L245.295 375.964L238.082 357.26H240.474L244.968 369.367L246.455 373.644H246.527C247.059 371.952 247.53 370.527 247.941 369.367L252.254 357.26H254.574L246.853 377.957C246.249 379.576 245.548 380.688 244.751 381.292C243.978 381.896 242.951 382.198 241.67 382.198ZM272.123 376V350.083H274.551V376H272.123ZM291.194 376V352.258H282.422V350.083H302.358V352.258H293.622V376H291.194Z" fill="white"/>
</svg>
